<svg width="512" height="512" xmlns="http://www.w3.org/2000/svg" preserveAspectRatio="xMidYMid meet" version="1.0">
 <metadata>Created by potrace 1.10, written by Peter Selinger 2001-2011</metadata>

 <g>
  <title>Layer 1</title>
  <g id="svg_1" fill="#6aa84f" transform="translate(0 512) scale(0.1 -0.1)">
   <path id="svg_2" d="m2794,4456c-105,-33 -263,-83 -352,-111c-89,-27 -162,-55 -162,-61c0,-6 9,-33 19,-60c35,-88 79,-207 115,-304c75,-208 198,-535 202,-539c2,-2 43,13 91,34c188,80 221,95 323,140c58,25 164,72 237,103l132,57l7,53c8,64 -10,264 -31,347c-20,80 -75,190 -120,243c-57,66 -211,163 -255,161c-8,-1 -101,-29 -206,-63z"/>
   <path id="svg_3" d="m1450,4213c15,-37 45,-106 64,-152c20,-46 33,-87 29,-91c-4,-4 -151,-74 -327,-156c-263,-123 -320,-153 -328,-174c-21,-55 -32,-207 -20,-286c21,-136 65,-207 229,-371c79,-79 150,-143 158,-143c15,0 50,16 429,199c103,50 191,89 195,87c4,-3 33,-73 66,-156c49,-124 61,-147 67,-128c4,13 24,133 44,268c19,135 46,315 59,400c13,85 24,167 25,182c0,22 -22,43 -137,135c-239,189 -558,439 -570,446c-7,4 1,-23 17,-60z"/>
   <path id="svg_4" d="m3410,4263c0,-4 9,-40 19,-79c54,-202 55,-527 2,-828c-32,-183 -67,-336 -79,-347c-4,-4 -72,6 -152,22c-80,16 -151,28 -158,29c-8,0 16,-24 53,-52c37,-29 104,-82 149,-118c46,-36 129,-101 186,-145c56,-44 158,-124 226,-177c68,-54 128,-98 135,-98c17,0 823,324 813,327c-5,1 -63,9 -128,18c-66,8 -120,16 -122,17c-1,2 7,68 18,148c11,80 20,192 21,250c3,239 -37,307 -298,505c-38,29 -132,102 -207,162c-75,59 -160,126 -188,148c-29,22 -89,69 -134,105c-118,94 -156,122 -156,113z"/>
   <path id="svg_5" d="m741,3293c-13,-65 -31,-163 -42,-218c-41,-216 -50,-297 -56,-475c-7,-224 5,-345 48,-467c39,-113 103,-226 145,-255c18,-13 80,-61 139,-108c59,-47 122,-96 140,-110c18,-14 92,-71 164,-128c72,-57 135,-101 140,-97c5,3 40,45 77,93c38,48 125,159 195,247c70,88 168,212 218,275c50,63 90,118 88,123c-3,9 -308,250 -645,509c-381,292 -478,402 -556,633l-33,97l-22,-119z"/>
   <path id="svg_6" d="m2530,3130c-52,-9 -149,-42 -176,-60c-18,-11 -18,-11 1,-4c85,30 159,44 233,44c79,0 171,-15 173,-29c0,-3 2,-16 5,-28c5,-30 -14,-30 -59,1c-19,13 -46,27 -58,31c-16,4 -19,3 -11,-3c7,-5 12,-14 10,-19c-3,-12 39,-53 54,-53c10,0 57,-51 58,-62c0,-15 -39,-8 -48,8c-6,10 -18,14 -33,11l-24,-4l23,-8c12,-4 22,-11 22,-16c0,-13 -39,-31 -51,-23c-6,3 -18,-1 -27,-10c-9,-9 -27,-24 -40,-34c-13,-9 -24,-26 -26,-37c-1,-11 -13,-25 -25,-31c-38,-19 -45,-33 -42,-74c1,-22 -1,-40 -6,-40c-15,0 -33,23 -33,41c0,9 -10,19 -22,22c-36,8 -110,-1 -123,-15c-22,-24 -36,-78 -24,-99c12,-23 54,-25 63,-4c5,14 56,22 56,10c0,-4 -7,-20 -16,-36c-8,-17 -14,-32 -12,-33c2,-1 15,-7 30,-13c21,-10 27,-20 30,-50c3,-36 5,-38 47,-46c24,-5 47,-5 50,0c3,4 17,14 30,21c18,11 25,11 31,2c4,-7 12,-10 18,-6c6,3 14,2 17,-4c4,-6 25,-10 48,-9c44,2 82,-14 105,-43c7,-10 25,-18 40,-18c36,0 49,-10 57,-40c4,-19 17,-29 46,-38c22,-7 44,-10 49,-7c16,10 50,-14 50,-34c0,-10 -7,-24 -16,-32c-8,-7 -25,-31 -36,-53c-27,-55 -46,-74 -93,-99c-22,-11 -45,-27 -51,-36c-14,-20 -121,-73 -189,-95l-50,-15l75,6c141,11 262,65 365,164c118,113 177,250 178,414c1,113 -9,158 -59,263c-42,87 -136,192 -217,240c-113,68 -283,103 -397,82zm300,-76c0,-2 -7,-4 -15,-4c-8,0 -15,4 -15,10c0,5 7,7 15,4c8,-4 15,-8 15,-10zm227,-192c50,-75 70,-121 87,-206c18,-86 21,-142 7,-150c-9,-6 -43,119 -77,284c-3,19 -20,51 -35,70c-16,19 -29,38 -29,42c0,19 17,4 47,-40zm-527,-225c32,-20 33,-22 13,-25c-12,-2 -32,4 -45,12c-20,13 -33,17 -78,25c-3,1 2,6 10,11c19,13 55,4 100,-23zm100,-37c17,-11 13,-15 -20,-23c-29,-7 -56,6 -46,22c9,13 45,14 66,1zm-105,-10c3,-5 -1,-10 -10,-10c-9,0 -13,5 -10,10c3,6 8,10 10,10c2,0 7,-4 10,-10zm146,-3c-1,-12 -15,-9 -19,4c-3,6 1,10 8,8c6,-3 11,-8 11,-12z"/>
   <path id="svg_7" d="m2500,3063l-35,-16l29,-12c17,-7 32,-19 35,-28c4,-10 13,-1 27,29l22,44l-22,-1c-11,0 -37,-8 -56,-16z"/>
   <path id="svg_8" d="m2198,2953c-66,-70 -102,-130 -135,-226c-22,-60 -26,-90 -26,-177c1,-162 50,-286 161,-402c82,-86 200,-154 302,-173c33,-6 37,-4 57,32c11,21 24,52 28,70c6,28 3,34 -22,46c-34,18 -62,49 -91,100c-29,51 -28,97 3,133c26,30 30,50 16,73c-5,8 -16,11 -30,6c-21,-6 -32,2 -98,76c-22,24 -73,59 -87,59c-25,0 -86,60 -86,85c0,37 -10,54 -27,48c-13,-5 -15,5 -10,83c4,49 6,90 7,91c0,1 23,30 51,63c28,34 49,63 47,66c-3,2 -29,-22 -60,-53z"/>
   <path id="svg_9" d="m3232,1953c-23,-142 -53,-331 -67,-421l-26,-162l32,-28c57,-48 232,-162 311,-203c155,-78 316,-103 426,-65c35,12 72,36 108,70l54,51l20,105c10,58 49,255 85,439c36,184 62,338 58,341c-4,4 -69,15 -143,25c-74,9 -261,34 -415,55c-154,21 -307,41 -340,45l-61,6l-42,-258z"/>
   <path id="svg_10" d="m2680,1884c-47,-19 -227,-91 -400,-161c-173,-69 -318,-128 -322,-132c-10,-9 -132,-850 -125,-857c2,-3 44,45 92,106c48,60 92,110 96,110c5,0 51,-33 102,-73c190,-150 279,-202 413,-243c74,-23 108,-27 204,-28c200,0 344,49 788,268l263,131l-74,2c-176,3 -372,93 -617,282c-67,52 -419,350 -478,406c-11,9 1,30 60,106c73,93 92,119 86,119c-2,0 -41,-16 -88,-36z"/>
  </g>
 </g>
</svg>